<svg width="32" height="32" viewBox="0 0 32 32" fill="none" xmlns="http://www.w3.org/2000/svg">
    <path fill-rule="evenodd" clip-rule="evenodd" d="M4 0H5V4H27V0H28V4H32V5H28V27H32V28H28V32H27V28H5V32H4V28H0V27H4V5H0V4H4V0ZM5 5H27V27H5V5ZM24 22.836C22.1679 23.4709 19.3588 24 16.8753 24C11.4402 24 8 21.3333 8 16C8 11.3228 11.0127 8 16.9771 8C19.4198 8 21.4758 8.42328 23.084 9.12169V11.8519C21.6183 11.2593 19.4198 10.6455 17.2214 10.6455C13.1298 10.6455 11.3588 12.5503 11.3588 16C11.3588 19.4709 13.1501 21.3757 17.1807 21.3757C18.626 21.3757 19.7048 21.1852 20.7226 20.8889V16.254H24V22.836Z" fill="#161229"/>
</svg>